<?xml version="1.0" encoding="UTF-8" standalone="no"?>
<!-- Created with Inkscape (http://www.inkscape.org/) -->

<svg
   xmlns:dc="http://purl.org/dc/elements/1.1/"
   xmlns:cc="http://creativecommons.org/ns#"
   xmlns:rdf="http://www.w3.org/1999/02/22-rdf-syntax-ns#"
   xmlns:svg="http://www.w3.org/2000/svg"
   xmlns="http://www.w3.org/2000/svg"
   xmlns:sodipodi="http://sodipodi.sourceforge.net/DTD/sodipodi-0.dtd"
   xmlns:inkscape="http://www.inkscape.org/namespaces/inkscape"
   width="64px"
   height="64px"
   id="svg3681"
   version="1.1"
   inkscape:version="0.48.0 r9654"
   sodipodi:docname="New document 2">
  <defs
     id="defs3683" />
  <sodipodi:namedview
     id="base"
     pagecolor="#ffffff"
     bordercolor="#666666"
     borderopacity="1.0"
     inkscape:pageopacity="0.0"
     inkscape:pageshadow="2"
     inkscape:zoom="12.21875"
     inkscape:cx="17.759591"
     inkscape:cy="33.17651"
     inkscape:current-layer="layer1"
     showgrid="true"
     inkscape:document-units="px"
     inkscape:grid-bbox="true"
     inkscape:window-width="1680"
     inkscape:window-height="973"
     inkscape:window-x="0"
     inkscape:window-y="24"
     inkscape:window-maximized="1" />
  <metadata
     id="metadata3686">
    <rdf:RDF>
      <cc:Work
         rdf:about="">
        <dc:format>image/svg+xml</dc:format>
        <dc:type
           rdf:resource="http://purl.org/dc/dcmitype/StillImage" />
        <dc:title></dc:title>
      </cc:Work>
    </rdf:RDF>
  </metadata>
  <g
     id="layer1"
     inkscape:label="Layer 1"
     inkscape:groupmode="layer">
    <rect
       style="fill:#d38d5f;fill-opacity:1;stroke:none"
       id="rect3739-5-6"
       width="4"
       height="9.3072777"
       x="64.094536"
       y="11.405641"
       transform="matrix(1,0,-0.69208246,0.72181845,0,0)" />
    <rect
       style="fill:#782121;fill-opacity:1;stroke:none"
       id="rect3739-5-7-0"
       width="4"
       height="9.3186588"
       x="64.159767"
       y="20.647684"
       transform="matrix(1,0,-0.69300069,0.72093692,0,0)" />
    <rect
       style="fill:#deaa87;fill-opacity:1;stroke:none"
       id="rect3739-5-7-1-4"
       width="4"
       height="13.227028"
       x="69.508827"
       y="33.925816"
       transform="matrix(1,0,-0.77128272,0.63649271,0,0)" />
    <rect
       style="fill:#782121;fill-opacity:1;stroke:none"
       id="rect3739-5-7-1-7-5"
       width="2.4340754"
       height="12.962905"
       x="41.212608"
       y="30.935108"
       transform="matrix(1,0,-0.25582018,0.96672438,0,0)" />
    <g
       id="g3894"
       transform="matrix(0.986325,0,0.90561428,1.0092921,-48.429192,1.5198833)">
      <g
         id="g3938"
         transform="matrix(1.042827,-0.18516679,-0.00928102,0.76382896,1.620447,12.22992)">
        <path
           style="fill:#ac9393;fill-opacity:1;stroke:none"
           d="m 43.440608,2.0696244 3.716876,1.03501 -2.294147,10.8659486 -3.716876,-1.03501 z"
           id="rect3739-9"
           inkscape:connector-curvature="0" />
        <path
           style="fill:#916f6f;fill-opacity:1;stroke:none"
           d="m 41.194524,12.922478 3.716877,1.03501 -5.91246,15.037009 -3.716876,-1.03501 z"
           id="rect3739-3-0"
           inkscape:connector-curvature="0" />
        <path
           style="fill:#d38d5f;fill-opacity:1;stroke:none"
           d="m 35.37103,27.919526 3.716876,1.03501 -4.391488,15.460543 -3.716876,-1.03501 z"
           id="rect3739-3-1-1"
           inkscape:connector-curvature="0" />
        <path
           style="fill:#c8b7b7;fill-opacity:1;stroke:none"
           d="M 31.115424,43.117799 34.8323,44.152809 31.088645,60.35869 27.371769,59.32368 z"
           id="rect3739-3-1-5-2"
           inkscape:connector-curvature="0" />
      </g>
    </g>
    <rect
       style="fill:#6c5d53;fill-opacity:1;stroke:none"
       id="rect3739"
       width="4"
       height="10"
       x="20.225063"
       y="4.7109971" />
    <rect
       style="fill:#917c6f;fill-opacity:1;stroke:none"
       id="rect3739-3"
       width="4"
       height="14.765839"
       x="23.089535"
       y="14.955946"
       transform="matrix(1,0,-0.18844906,0.98208297,0,0)" />
    <rect
       style="fill:#ffe6d5;fill-opacity:1;stroke:none"
       id="rect3739-3-1"
       width="4"
       height="14.546474"
       x="19.8722"
       y="29.223789"
       transform="matrix(1,0,-0.07876684,0.99689307,0,0)" />
    <rect
       style="fill:#c8beb7;fill-opacity:1;stroke:none"
       id="rect3739-3-1-5"
       width="4"
       height="14.995902"
       x="17.453474"
       y="43.383739"
       transform="matrix(1,0,-0.02183033,0.99976169,0,0)" />
    <rect
       style="fill:#782121;fill-opacity:1;stroke:none"
       id="rect3739-5"
       width="4"
       height="10.223886"
       x="29.935921"
       y="4.0189552"
       transform="matrix(1,0,0.20812801,0.9781016,0,0)" />
    <rect
       style="fill:#c83737;fill-opacity:1;stroke:none"
       id="rect3739-5-7"
       width="4"
       height="10.223886"
       x="29.921156"
       y="14.227155"
       transform="matrix(1,0,0.20812801,0.9781016,0,0)" />
    <rect
       style="fill:#c8beb7;fill-opacity:1;stroke:none"
       id="rect3739-5-7-1"
       width="4"
       height="18.105261"
       x="34.595921"
       y="23.904163"
       transform="matrix(1,0,0.01808123,0.99983652,0,0)" />
    <rect
       style="fill:#e9c6af;fill-opacity:1;stroke:none"
       id="rect3739-5-7-1-7"
       width="4"
       height="19.605747"
       x="17.876764"
       y="45.452068"
       transform="matrix(1,0,0.38404103,0.92331603,0,0)" />
  </g>
</svg>
